<?xml version="1.0" encoding="UTF-8" standalone="no"?>
<!-- Created with Inkscape (http://www.inkscape.org/) -->

<svg
   xmlns:dc="http://purl.org/dc/elements/1.1/"
   xmlns:cc="http://creativecommons.org/ns#"
   xmlns:rdf="http://www.w3.org/1999/02/22-rdf-syntax-ns#"
   xmlns:svg="http://www.w3.org/2000/svg"
   xmlns="http://www.w3.org/2000/svg"
   xmlns:sodipodi="http://sodipodi.sourceforge.net/DTD/sodipodi-0.dtd"
   xmlns:inkscape="http://www.inkscape.org/namespaces/inkscape"
   width="198.20876mm"
   height="28.426407mm"
   viewBox="0 0 198.20876 28.426407"
   version="1.1"
   id="svg3810"
   inkscape:version="0.92.3 (2405546, 2018-03-11)"
   sodipodi:docname="logo.svg">
  <defs
     id="defs3804" />
  <sodipodi:namedview
     id="base"
     pagecolor="#ffffff"
     bordercolor="#666666"
     borderopacity="1.0"
     inkscape:pageopacity="0.0"
     inkscape:pageshadow="2"
     inkscape:zoom="1.979899"
     inkscape:cx="362.15047"
     inkscape:cy="16.103509"
     inkscape:document-units="mm"
     inkscape:current-layer="g3844"
     showgrid="false"
     inkscape:window-width="3840"
     inkscape:window-height="2066"
     inkscape:window-x="-11"
     inkscape:window-y="-11"
     inkscape:window-maximized="1" />
  <metadata
     id="metadata3807">
    <rdf:RDF>
      <cc:Work
         rdf:about="">
        <dc:format>image/svg+xml</dc:format>
        <dc:type
           rdf:resource="http://purl.org/dc/dcmitype/StillImage" />
        <dc:title></dc:title>
      </cc:Work>
    </rdf:RDF>
  </metadata>
  <g
     inkscape:label="Layer 1"
     inkscape:groupmode="layer"
     id="layer1"
     style="display:none"
     transform="translate(-7.3236377,-129.70644)" />
  <g
     inkscape:groupmode="layer"
     id="layer2"
     inkscape:label="txt"
     transform="translate(-7.3236377,-129.70644)">
    <g
       transform="matrix(0.22636311,0,0,0.22636311,-51.163377,63.381591)"
       id="g3844">
      <g
         style="fill:#000000;stroke:none"
         id="g3757"
         transform="matrix(0.1,0,0,-0.1,0,728)">
        <path
           inkscape:connector-curvature="0"
           id="path3741"
           d="m 9741,4335 c -172,-38 -310,-152 -372,-306 -24,-61 -86,-395 -95,-509 -7,-89 14,-192 51,-256 34,-58 107,-119 174,-146 76,-30 267,-32 351,-4 133,45 217,104 279,197 57,86 74,140 116,369 58,322 43,450 -66,558 -100,100 -259,135 -438,97 z m 194,-246 c 52,-25 75,-72 75,-153 0,-70 -49,-366 -71,-436 -39,-117 -162,-191 -278,-165 -70,15 -121,86 -121,168 0,68 68,424 91,471 42,90 125,139 224,133 28,-2 63,-10 80,-18 z" />
        <path
           inkscape:connector-curvature="0"
           id="path3743"
           d="m 2793,4318 c -14,-18 -217,-1174 -209,-1193 4,-12 27,-15 118,-15 62,0 118,4 124,8 9,5 94,447 94,485 0,4 81,7 180,7 h 180 v -22 c 0,-13 -18,-121 -40,-242 -22,-120 -37,-223 -34,-227 7,-13 241,-11 249,1 11,18 216,1183 211,1197 -6,15 -241,19 -250,4 -4,-7 -86,-449 -86,-466 0,-8 -360,-6 -360,3 0,4 16,104 36,223 20,119 34,224 31,233 -5,13 -25,16 -120,16 -80,0 -118,-4 -124,-12 z" />
        <path
           inkscape:connector-curvature="0"
           id="path3745"
           d="m 3805,4318 c -3,-7 47,-183 110,-391 l 114,-378 -39,-211 c -22,-116 -37,-215 -34,-220 9,-14 240,-10 251,5 6,6 27,104 48,217 l 38,205 243,379 c 134,208 244,385 244,392 0,20 -252,20 -272,0 -8,-8 -79,-127 -157,-265 -79,-138 -146,-251 -150,-251 -3,0 -35,116 -70,258 -35,141 -69,260 -75,264 -20,14 -246,9 -251,-4 z" />
        <path
           inkscape:connector-curvature="0"
           id="path3747"
           d="m 4925,4320 c -10,-17 -215,-1192 -209,-1201 3,-5 59,-9 124,-9 104,0 120,2 128,18 5,9 22,92 37,184 l 28,166 166,4 c 142,4 174,8 223,27 84,33 147,79 200,148 56,75 86,151 96,246 23,223 -74,370 -274,412 -82,17 -509,21 -519,5 z m 468,-253 c 45,-30 59,-61 59,-132 -1,-115 -56,-192 -152,-214 -25,-6 -84,-11 -132,-11 -77,0 -88,2 -88,18 0,9 14,91 30,182 17,91 30,169 30,174 0,4 51,7 113,5 87,-3 119,-8 140,-22 z" />
        <path
           inkscape:connector-curvature="0"
           id="path3749"
           d="m 5975,4320 c -7,-12 -10,-25 -131,-704 -47,-264 -83,-485 -80,-493 4,-10 75,-13 378,-13 205,0 378,4 385,8 14,9 48,195 39,217 -5,13 -44,15 -257,15 h -251 l 5,23 c 3,12 13,70 23,130 l 17,107 h 207 c 150,0 211,3 222,13 10,7 23,49 33,111 15,83 16,99 4,107 -8,5 -105,9 -216,9 -112,0 -203,4 -203,8 0,5 9,57 20,117 11,60 20,110 20,112 0,2 107,3 239,3 179,0 241,3 248,13 14,16 46,203 38,217 -9,14 -731,14 -740,0 z" />
        <path
           inkscape:connector-curvature="0"
           id="path3751"
           d="m 6953,4318 c -13,-17 -217,-1184 -208,-1198 8,-13 242,-14 250,0 3,5 19,87 36,182 16,95 32,183 35,196 4,21 9,23 65,20 l 61,-3 79,-195 c 44,-107 85,-198 92,-202 18,-11 255,-10 262,2 3,5 -37,100 -90,211 -52,111 -95,208 -95,215 0,8 5,14 12,14 31,0 122,58 168,106 113,120 148,300 89,458 -26,70 -105,145 -187,177 -53,21 -76,23 -308,27 -200,3 -252,1 -261,-10 z m 479,-266 c 31,-30 33,-37 33,-100 0,-53 -6,-76 -25,-111 -38,-67 -79,-84 -217,-89 -62,-3 -113,-3 -113,-1 0,8 50,294 55,318 6,23 7,23 120,19 114,-3 115,-3 147,-36 z" />
        <path
           inkscape:connector-curvature="0"
           id="path3753"
           d="m 8011,4317 c -14,-18 -216,-1170 -208,-1191 5,-13 25,-16 120,-16 80,0 118,4 125,13 10,12 92,493 113,667 6,52 15,99 20,104 8,9 11,-2 54,-174 38,-156 87,-323 98,-338 7,-9 37,-12 106,-10 l 95,3 77,120 c 75,118 234,386 242,408 2,7 7,9 11,6 4,-3 -16,-116 -43,-250 -64,-319 -96,-512 -88,-532 5,-15 23,-17 122,-17 110,0 116,1 125,23 15,34 212,1176 205,1187 -4,6 -64,10 -144,10 -119,0 -140,-2 -153,-17 -27,-31 -242,-373 -324,-513 -91,-157 -83,-145 -89,-138 -3,2 -23,79 -45,169 -50,200 -128,469 -142,487 -15,18 -261,17 -277,-1 z" />
        <path
           inkscape:connector-curvature="0"
           id="path3755"
           d="m 10576,4322 c -10,-16 -216,-1194 -210,-1204 7,-12 496,-10 574,3 218,34 360,200 360,419 0,81 -23,134 -79,182 l -42,36 36,22 c 73,45 125,153 125,260 0,119 -50,199 -158,252 l -67,33 -266,3 c -167,3 -269,0 -273,-6 z m 454,-235 c 82,-41 47,-188 -53,-226 -16,-6 -74,-11 -129,-11 -98,0 -100,0 -95,22 3,12 14,68 23,125 l 17,103 h 106 c 65,0 116,-5 131,-13 z m -75,-458 c 52,-14 73,-34 81,-76 13,-71 -36,-162 -103,-189 -21,-9 -74,-14 -154,-14 -121,0 -121,0 -116,23 3,12 13,65 22,117 8,52 18,107 21,123 l 6,27 h 101 c 56,0 120,-5 142,-11 z" />
      </g>
    </g>
  </g>
</svg>
